/* XPM */
static char *c60981d6017c42bcd4b8002e738c8c27[] = {
/* columns rows colors chars-per-pixel */
"64 64 38 1 ",
"  c black",
". c #000001",
"X c #000101",
"o c #010507",
"O c #020609",
"+ c #02070B",
"@ c #040709",
"# c #050A0B",
"$ c #060D0E",
"% c #040B10",
"& c #040B11",
"* c #040C11",
"= c #050E14",
"- c #050F15",
"; c #06131C",
": c #081723",
"> c #0A1B29",
", c #112025",
"< c #0C2536",
"1 c #0D2B3D",
"2 c #162930",
"3 c #103045",
"4 c #113249",
"5 c #11354D",
"6 c #153F5C",
"7 c #194A6A",
"8 c #1B5172",
"9 c #1E567C",
"0 c #356272",
"q c #205B83",
"w c #2A79AF",
"e c #2980B9",
"r c #2C80B9",
"t c #2D84BD",
"y c #3292D2",
"u c #3394D6",
"i c #3498DB",
"p c None",
/* pixels */
"pppppppppppppppppppppppppppppppppppppppppppppppppppppppppppppppp",
"pppppppppppppppppppppppppppppppppppppppppppppppppppppppppppppppp",
"pppppppppppppppppppppppppppppppppppppppppppppppppppppppppppppppp",
"pppppppppppppppppppppppppppppppppppppppppppppppppppppppppppppppp",
"pppppppppppppppppppppppppppppppppppppppppppppppppppppppppppppppp",
"pppppppppppppppppppppppppppppppppppppppppppppppppppppppppppppppp",
"ppp                                   pppppppppppppppppppppppppp",
"p                                       pppppppppppppppppppppppp",
"p                                       pppppppppppppppppppppppp",
"                                         ppppppppppppppppppppppp",
"    -4444444444444444444444444444444&    ppppppppppppppppppppppp",
"    6iiiiiiiiiiiiiiiiiiiiiiiiiiiiiii4    ppppppppppppppppppppppp",
"    6iiiiiiiiiiiiiiiiiiiiiiiiiiiiiii4    ppppppppppppppppppppppp",
"    6iiiiiiiiiiiiiiiiiiiiiiiiiiiiiii4    ppppppppppppppppppppppp",
"    6iiiiiiiiiiiiiiiiiiiiiiiiiiiiiii4    ppppppppppppppppppppppp",
"    ;6666666666666666666666666666666-    ppppppppppppppppppppppp",
"                                         ppppppppppppppppppppppp",
"                                        pppppppppppppppppppppppp",
"p                                       pppppppppppppppppppppppp",
"ppp                                   pppppppppppppppppppppppppp",
"pppppppppppppppppppppppppppppppppppppppppppppppppppppppppppppppp",
"pppppppppppppppppppppppppppppppppppppppppppppppppppppppppppppppp",
"pppppppppppppppppppppppppppppppppppppppppppppppppppppppppppppppp",
"pppppppppppppppppppppppppppppppppppppppppppppppp   ppppppppppppp",
"ppppppppppppppppppppppppppppppppppppppppppppppp      ppppppppppp",
"ppp                                   ppppppppp       pppppppppp",
"p                                       pppppp         ppppppppp",
"p                                       pppppp           ppppppp",
"                                         ppppp   *9       pppppp",
"    -3333433333333333333333333333333*    ppppp   *ir+      ppppp",
"    5teeeeeeeeeeeeeeeeeeeeeeeeeeeeee1    ppppp   *iiu<      pppp",
"    5weeeeeeeeeeeeeeeeeeeeeeeeeeeeee1    ppppp   *iiiiq      ppp",
"    5eeeeeeeeeeeeeeeeeeeeeeeeeeeeeee1    ppppp   *iiiiito    ppp",
"    5eeeeeeeeeeeeeeeeeeeeeeeeeeeeeee1    ppppp   *iiiii8     ppp",
"    -3333333333333333333333333333333&    ppppp   *iiiy>      ppp",
"                                         ppppp   *iiwo      pppp",
"p                                       pppppp   *i7       ppppp",
"p                                       pppppp   +:       pppppp",
"ppp                                   pppppppp          pppppppp",
"pppppppppppppppppppppppppppppppppppppppppppppp         ppppppppp",
"pppppppppppppppppppppppppppppppppppppppppppppp        pppppppppp",
"ppppppppppppppppppppppppppppppppppppppppppppppp     pppppppppppp",
"ppppppppppppppppppppppppppppppppppppppppppppppppp pppppppppppppp",
"pppppppppppppppppppppppppppppppppppppppppppppppppppppppppppppppp",
"ppp                                   pppppppppppppppppppppppppp",
"p                                       pppppppppppppppppppppppp",
"                                        pppppppppppppppppppppppp",
"                                         ppppppppppppppppppppppp",
"    $2222222222222222222222222222222#    ppppppppppppppppppppppp",
"    20000000000000000000000000000000,    ppppppppppppppppppppppp",
"    20000000000000000000000000000000,    ppppppppppppppppppppppp",
"    20000000000000000000000000000000,    ppppppppppppppppppppppp",
"    20000000000000000000000000000000,    ppppppppppppppppppppppp",
"    #,,,,,,,,,,,,,,,,,,,,,,,,,,,,,,,@    ppppppppppppppppppppppp",
"                                         ppppppppppppppppppppppp",
"p                                       pppppppppppppppppppppppp",
"p                                       pppppppppppppppppppppppp",
"ppp                                   pppppppppppppppppppppppppp",
"pppppppppppppppppppppppppppppppppppppppppppppppppppppppppppppppp",
"pppppppppppppppppppppppppppppppppppppppppppppppppppppppppppppppp",
"pppppppppppppppppppppppppppppppppppppppppppppppppppppppppppppppp",
"pppppppppppppppppppppppppppppppppppppppppppppppppppppppppppppppp",
"pppppppppppppppppppppppppppppppppppppppppppppppppppppppppppppppp",
"pppppppppppppppppppppppppppppppppppppppppppppppppppppppppppppppp"
};
