/* XPM */
static char *_662c28b25914325fef19f6e49abfe62[] = {
/* columns rows colors chars-per-pixel */
"32 32 16 1 ",
"  c #830018",
". c #8B041C",
"X c #8B041D",
"o c #C51334",
"O c #C71334",
"+ c #FA0D39",
"@ c #FF0C38",
"# c #FF0E3A",
"$ c #ED1039",
"% c #C5213F",
"& c #FF1E46",
"* c #C72341",
"= c #ED3658",
"- c #FA3D5F",
"; c #FF3F62",
": c None",
/* pixels */
"&#@@@@@@@@@@@@@@;;;;;;;;;;;;;;;:",
"##@@@@@@@@@@@@@@;;;;;;;;;;;;;;;;",
"@@@@@@@@@@@@@@@@;;;;;;;;;;;;;;;;",
"@@@@@@@@@@@@@@@@;;;;;;;;;;;;;;;;",
"@@@@@@@@@@@@@@@@;;;;;;;;;;;;;;;;",
"@@@@@@@@@@@@@@@@;;;;;;;;;;;;;;;;",
"@@@@@@@@@@@@@@@@;;;;;;;;;;;;;;;;",
"@@@@@@@@@@@@@@@@;;;;;;;;;;;;;;;;",
"@@@@@@@@@@@@@@@@;;;;;;;;;;;;;;;;",
"@@@@@@@@@@@@@@@@;;;;;;;;;;;;;;;;",
"@@@@@@@@@@@@@@@@;;;;;;;;;;;;;;;;",
"@@@@@@@@@@@@@@@@;;;;;;;;;;;;;;;;",
"@@@@@@@@@@@@@@@@;;;;;;;;;;;;;;;;",
"@@@@@@@@@@@@@@@@;;;;;;;;;;;;;;;;",
"@@@@@@$OOOoooooo%%%%%%%%*=;;;;;;",
"@@@@@+.                  X-;;;;;",
"@@@@@+.                  X-;;;;;",
"@@@@@@$OoooooooO%%%%%%%%*=;;;;;;",
"@@@@@@@@@@@@@@@@;;;;;;;;;;;;;;;;",
"@@@@@@@@@@@@@@@@;;;;;;;;;;;;;;;;",
"@@@@@@@@@@@@@@@@;;;;;;;;;;;;;;;;",
"@@@@@@@@@@@@@@@@;;;;;;;;;;;;;;;;",
"@@@@@@@@@@@@@@@@;;;;;;;;;;;;;;;;",
"@@@@@@@@@@@@@@@@;;;;;;;;;;;;;;;;",
"@@@@@@@@@@@@@@@@;;;;;;;;;;;;;;;;",
"@@@@@@@@@@@@@@@@;;;;;;;;;;;;;;;;",
"@@@@@@@@@@@@@@@@;;;;;;;;;;;;;;;;",
"@@@@@@@@@@@@@@@@;;;;;;;;;;;;;;;;",
"@@@@@@@@@@@@@@@@;;;;;;;;;;;;;;;;",
"@@@@@@@@@@@@@@@@;;;;;;;;;;;;;;;;",
"#@@@@@@@@@@@@@@@;;;;;;;;;;;;;;;;",
"&#@@@@@@@@@@@@@#;;;;;;;;;;;;;;;:"
};
