/* XPM */
static char *f57b694f318148c99cdb8e86420786ea[] = {
/* columns rows colors chars-per-pixel */
"32 32 12 1 ",
"  c #2294BB",
". c #2394BB",
"X c #2395BB",
"o c #2393BC",
"O c #2493BD",
"+ c #2294BC",
"@ c #2394BC",
"# c #2395BC",
"$ c #2394BD",
"% c #2494BC",
"& c #2494BD",
"* c None",
/* pixels */
"************@@@@@@@@************",
"*********@@@@@@@@@@@@@@*********",
"*******X@@@@@@@@@@@@@@@@@*******",
"******X@@@@@@******@@@@@@X******",
"*****@@@Xo************@@@@@*****",
"****@@@@&**************&@@@@****",
"***X@@@******************@@@X***",
"**X@@@********************@@@X**",
"**@@@&********************&@@@**",
"*X@@@*********X@@@*********@@@X*",
"*@@@********@@@@@@@*********@@@*",
"*@@@********@@@@@@@@********@@@*",
"@@@&*******X@@***@@@********&@@@",
"@@@********@X&***@@@*********@@@",
"@@@*********o****@@@*********@@@",
"@@@*************@@@&*********@@@",
"@@@************@@@@**********@@@",
"@@@***********@@@@***********@@@",
"@@@**********@@@@************@@@",
"@@@&*********@@@************&@@@",
"*@@@********@@@@@@@@********@@@*",
"*@@@*******@@@@@@@@@@*******@@@*",
"*X@@@******X@@@@@@@@*******@@@X*",
"**@@@&********************&@@@**",
"**X@@@********************@@@X**",
"***X@@@******************@@@X***",
"****@@@@&**************&@@@@****",
"*****@@@@@************@@@@@*****",
"******X@@@@@&******O@@@@oX******",
"*******X@@@@@@@@@@@@@@@@X*******",
"*********X@@@@@@@@@@@@X*********",
"************@@@@@@@@************"
};
