/* XPM */
static char *_2de66d53b454ca896dde568d89ddd09[] = {
/* columns rows colors chars-per-pixel */
"32 32 12 1 ",
"  c #2294BB",
". c #2395BB",
"X c #2293BD",
"o c #2493BD",
"O c #2294BC",
"+ c #2394BC",
"@ c #2295BC",
"# c #2395BC",
"$ c #2394BD",
"% c #2494BC",
"& c #2494BD",
"* c None",
/* pixels */
"************++++++++************",
"*********.+++++++++++++*********",
"*******.++++++++++++++++.*******",
"******.+++++$******++++++.******",
"*****+++.$************+++++*****",
"****++++&**************&++++****",
"***.+++******************+++.***",
"**.+++********************+++.**",
"**+++&********************&+++**",
"*.+++**********+++*********+++.*",
"*+++*********.+++++*********+++*",
"*+++*********++++++&********+++*",
"+++&*********++**+++********o+++",
"+++**************+++*********+++",
"+++*************++++*********+++",
"+++************++++**********+++",
"+++*************++++*********+++",
"+++***************+++********+++",
"+++**********&****+++********+++",
"+++&********+++***+++*******&+++",
"*+++********++++++++.*******+++*",
"*+++*********++++++.********+++*",
"*.+++*********+++&*********+++.*",
"**+++&********************&+++**",
"**.+++********************+++.**",
"***.+++******************+++.***",
"****++++&**************&++++****",
"*****+++++************+++++*****",
"******.+++++&******o+++++.******",
"*******.++++++++++++++++.*******",
"*********.++++++++++++.*********",
"************++++++++************"
};
