/* XPM */
static char *_358c43be08f4467b69966bcc9478efc[] = {
/* columns rows colors chars-per-pixel */
"32 32 11 1 ",
"  c #2294BB",
". c #2394BB",
"X c #2395BB",
"o c #2493BD",
"O c #2294BC",
"+ c #2394BC",
"@ c #2295BC",
"# c #2395BC",
"$ c #2394BD",
"% c #2494BC",
"& c None",
/* pixels */
"&&&&&&&&&&&&++++++++&&&&&&&&&&&&",
"&&&&&&&&&+++++++++++++#&&&&&&&&&",
"&&&&&&&X++++++++++++++++#&&&&&&&",
"&&&&&&X++++++&&&&&&++++++X&&&&&&",
"&&&&&+++++&&&&&&&&&&&&+++++&&&&&",
"&&&&++++o&&&&&&&&&&&&&&o++++&&&&",
"&&&X+++&&&&&&&&&&&&&&&&&&+++X&&&",
"&&X+++&&&&&&&&&&&&&&&&&&&&+++X&&",
"&&+++o&&&&&&&&&&&&&&&&&&&&o+++&&",
"&X+++&&&&&&&&&&+++&&&&&&&&&+++X&",
"&+++&&&&&&&&&&&+++X&&&&&&&&&+++&",
"&+++&&&&&&&&&&+++++&&&&&&&&&+++&",
"+++o&&&&&&&&&++++++&&&&&&&&&o+++",
"+++&&&&&&&&&&++++++&&&&&&&&&&+++",
"+++&&&&&&&&&+++&+++&&&&&&&&&&+++",
"+++&&&&&&&&&+++&+++&&&&&&&&&&+++",
"+++&&&&&&&&+++&&+++&&&&&&&&&&+++",
"#++&&&&&&&&+++##++++&&&&&&&&&++#",
"+++&&&&&&&+++++++++++&&&&&&&&+++",
"+++o&&&&&&&++++#++++&&&&&&&&o+++",
"&+++&&&&&&&&&&&&+++&&&&&&&&&+++&",
"&+++&&&&&&&&&&&&+++&&&&&&&&&+++&",
"&#+++&&&&&&&&&&&&++&&&&&&&&+++#&",
"&&++Xo&&&&&&&&&&&&&&&&&&&&o+++&&",
"&&X+++&&&&&&&&&&&&&&&&&&&&+++X&&",
"&&&X+++&&&&&&&&&&&&&&&&&&++++&&&",
"&&&&++++o&&&&&&&&&&&&&&o++++&&&&",
"&&&&&+++++&&&&&&&&&&&&+++++&&&&&",
"&&&&&&X+++++o&&&&&&o+++++X&&&&&&",
"&&&&&&&X++++++++++++++++X&&&&&&&",
"&&&&&&&&&X++++++++++++X&&&&&&&&&",
"&&&&&&&&&&&&++#++#++&&&&&&&&&&&&"
};
