/* XPM */
static char *_4a47b89b1a34fe5ab4a034e6e215275[] = {
/* columns rows colors chars-per-pixel */
"32 32 9 1 ",
"  c #2294BB",
". c #2395BB",
"X c #2493BD",
"o c #2294BC",
"O c #2394BC",
"+ c #2395BC",
"@ c #2394BD",
"# c #2494BC",
"$ c None",
/* pixels */
"$$$$$$$$$$$$OOOOOOOO$$$$$$$$$$$$",
"$$$$$$$$$OOOOOOOOOOOOO+$$$$$$$$$",
"$$$$$$$.OOOOOOOOOOOOOOOO+$$$$$$$",
"$$$$$$.OOOOOO$$$$$$OOOOOO.$$$$$$",
"$$$$$OOO.O$$$$$$$$$$$$OOOOO$$$$$",
"$$$$OOOOX$$$$$$$$$$$$$$XOOOO$$$$",
"$$$.OOO$$$$$$$$$$$$$$$$$$OOO.$$$",
"$$.OOO$$$$$$$$$$$$$$$$$$$$OOO.$$",
"$$OOOX$$$$$$$$$$$$$$$$$$$$XOOO$$",
"$.OOO$$$$$$$$XOOOO$$$$$$$$$OOO.$",
"$OOO$$$$$$$$$OOOOO$$$$$$$$$$OOO$",
"$OOO$$$$$$$$$$OOOO$$$$$$$$$$OOO$",
"OOOX$$$$$$$$$$$OOO$$$$$$$$$$XOOO",
"OOO$$$$$$$$$$$$OOO$$$$$$$$$$$OOO",
"OOO$$$$$$$$$$$$OOO$$$$$$$$$$$OOO",
"OOO$$$$$$$$$$$$OOO$$$$$$$$$$$OOO",
"OOO$$$$$$$$$$$$OOO$$$$$$$$$$$OOO",
"+OO$$$$$$$$$$$$OOO$$$$$$$$$$$OO+",
"OOO$$$$$$$$$$$$OOO$$$$$$$$$$$OOO",
"OOOX$$$$$$$$$$$OOO$$$$$$$$$$XOOO",
"$OOO$$$$$$$$$$$OOO$$$$$$$$$$OOO$",
"$OOO$$$$$$$$$$$OOO$$$$$$$$$$OOO$",
"$+OOO$$$$$$$$$$$O$$$$$$$$$$OOO+$",
"$$OO+X$$$$$$$$$$$$$$$$$$$$XOOO$$",
"$$.OOO$$$$$$$$$$$$$$$$$$$$OOO.$$",
"$$$.OOO$$$$$$$$$$$$$$$$$$OOO.$$$",
"$$$$OOOOX$$$$$$$$$$$$$$XOOOO$$$$",
"$$$$$OOOOO$$$$$$$$$$$$OOOOO$$$$$",
"$$$$$$.OOOOOX$$$$$$XOOOOO.$$$$$$",
"$$$$$$$.OOOOOOOOOOOOOOOO.$$$$$$$",
"$$$$$$$$$.OOOOOOOOOOOO.$$$$$$$$$",
"$$$$$$$$$$$$OO+OO+OO$$$$$$$$$$$$"
};
