/* XPM */
static char *umberoneinsideacircle[] = {
/* columns rows colors chars-per-pixel */
"32 32 7 1 ",
"  c #3A4953",
". c #394954",
"X c #3A4954",
"o c #3B4954",
"O c #3A4955",
"+ c #3B4A54",
"@ c None",
/* pixels */
"@@@@@@@@@@@@XXXXXXX+@@@@@@@@@@@@",
"@@@@@@@@@XXXXXXXXXXXXXX@@@@@@@@@",
"@@@@@@@ XXXXXXXXXXXXXXXXX@@@@@@@",
"@@@@@@XXXXXXXXXXXXXXXXXXXX@@@@@@",
"@@@@@XXXXXXXXXXXXXXXXXXXXXX@@@@@",
"@@@@XXXXXXXXXXXXXXXXXXXXXXXX@@@@",
"@@@XXXXXXXXXXXX@@@@XXXXXXXXXX@@@",
"@@ XXXXXXXXXX@@@@@@XXXXXXXXXXX@@",
"@@XXXXXXXXXX@@@@@@@XXXXXXXXXXX@@",
"@XXXXXXXXXX@@@@@@@@XXXXXXXXXXXX@",
"@XXXXXXXXXX@@@@@@@@XXXXXXXXXXXX@",
"@XXXXXXXXXXX@@@@@@@XXXXXXXXXXXX@",
"XXXXXXXXXXXXXXX@@@@XXXXXXXXXXXX+",
"XXXXXXXXXXXXXX @@@@XXXXXXXXXXXXX",
"XXXXXXXXXXXXXXX@@@@XXXXXXXXXXXXX",
"XXXXXXXXXXXXXX @@@@XXXXXXXXXXXXX",
"XXXXXXXXXXXXXX @@@@XXXXXXXXXXXXX",
"XXXXXXXXXXXXXX @@@@XXXXXXXXXXXXX",
"XXXXXXXXXXXXXX @@@@XXXXXXXXXXXXX",
"+XXXXXXXXXXXXXX@@@@XXXXXXXXXXXX+",
"@XXXXXXXXXXXXXX@@@@XXXXXXXXXXXX@",
"@XXXXXXXXXXXXX @@@@XXXXXXXXXXXX@",
"@XXXXXXXXXXXXXX@@@@XXXXXXXXXXXX@",
"@@XXXXXXXXXXXXX@@@@XXXXXXXXXXX@@",
"@@XXXXXXXXXXXXX@@@@XXXXXXXXXXX@@",
"@@@XXXXXXXXXXXX@@@@XXXXXXXXXX@@@",
"@@@@XXXXXXXXXXXXXXXXXXXXXXXX@@@@",
"@@@@@XXXXXXXXXXXXXXXXXXXXXX@@@@@",
"@@@@@@XXXXXXXXXXXXXXXXXXXX@@@@@@",
"@@@@@@@ XXXXXXXXXXXXXXXXX@@@@@@@",
"@@@@@@@@@XXXXXXXXXXXXXX@@@@@@@@@",
"@@@@@@@@@@@@+XXXXXX+@@@@@@@@@@@@"
};
