/* XPM */
static char *_____________[] = {
/* columns rows colors chars-per-pixel */
"60 53 256 2",
"   c #7E7032",
".  c #664732",
"X  c #74724C",
"o  c #9B7901",
"O  c #956909",
"+  c #A67A03",
"@  c #A47B17",
"#  c #B4770D",
"$  c #9A7927",
"%  c #917033",
"&  c #A97B29",
"*  c #B57B29",
"=  c #B57D38",
"-  c #A4793A",
";  c #C97814",
":  c #927B4C",
">  c #A57B44",
",  c #967B6C",
"<  c #A38304",
"1  c #B98905",
"2  c #AD871A",
"3  c #B5831C",
"4  c #B98718",
"5  c #BA951A",
"6  c #BC9505",
"7  c #BBA800",
"8  c #9E8A37",
"9  c #AB8727",
"0  c #BB8D2C",
"q  c #B68828",
"w  c #B99329",
"e  c #AA8638",
"r  c #B78836",
"t  c #AC9433",
"y  c #B39333",
"u  c #BB933B",
"i  c #BA9937",
"p  c #AA922E",
"a  c #BEA83D",
"s  c #C7880A",
"d  c #D18C09",
"f  c #C99708",
"g  c #D59906",
"h  c #C6881A",
"j  c #C79718",
"k  c #D69918",
"l  c #D78818",
"z  c #C9A609",
"x  c #D9A907",
"c  c #D9B402",
"v  c #C9A41B",
"b  c #D7A617",
"n  c #DAB61A",
"m  c #CEB206",
"M  c #E5A70A",
"N  c #E8B807",
"B  c #E6AA17",
"V  c #E7B518",
"C  c #F6BA18",
"Z  c #F1B50A",
"A  c #C58A27",
"S  c #C39423",
"D  c #C4932B",
"F  c #C79928",
"G  c #D59826",
"H  c #C58A36",
"J  c #CC9D34",
"K  c #C79838",
"L  c #D59937",
"P  c #D08F33",
"I  c #E49E30",
"U  c #CDAA22",
"Y  c #CAA428",
"T  c #DCAA24",
"R  c #D5A32B",
"E  c #D8A727",
"W  c #D9B327",
"Q  c #C9A539",
"!  c #D5A837",
"~  c #D7B636",
"^  c #E4AD23",
"/  c #E6A928",
"(  c #E4B424",
")  c #E4B32B",
"_  c #EAB929",
"`  c #F6BA27",
"'  c #E6A935",
"]  c #E6B837",
"[  c #F3B734",
"{  c #E8C413",
"}  c #F5C619",
"|  c #F6CD11",
" . c #DCC43A",
".. c #CDC83B",
"X. c #EDC72B",
"o. c #FBC82A",
"O. c #FBD62C",
"+. c #E9C638",
"@. c #E9D737",
"#. c #F9D837",
"$. c #F5CD33",
"%. c #FDE53D",
"&. c #F9E73B",
"*. c #F0E73A",
"=. c #9B8656",
"-. c #9E8C44",
";. c #A68946",
":. c #B98A45",
">. c #AA964C",
",. c #B89647",
"<. c #B48756",
"1. c #A99554",
"2. c #B79957",
"3. c #A48C5A",
"4. c #BAA348",
"5. c #BBA759",
"6. c #BDB25B",
"7. c #ACA147",
"8. c #97916E",
"9. c #AD9571",
"0. c #B7A569",
"q. c #B4A477",
"w. c #B2AD71",
"e. c #C68944",
"r. c #C89946",
"t. c #D59B46",
"y. c #C79A58",
"u. c #CDAC4B",
"i. c #C8A646",
"p. c #D5A947",
"a. c #CCB647",
"s. c #DBB543",
"d. c #D6B849",
"f. c #CCAD54",
"g. c #C9A756",
"h. c #D9AA57",
"j. c #CAB656",
"k. c #D8B858",
"l. c #E5B947",
"z. c #E4BA58",
"x. c #EEAF4C",
"c. c #C69969",
"v. c #C89D70",
"b. c #C6A565",
"n. c #CAB764",
"m. c #D6B766",
"M. c #C7A973",
"N. c #CAB975",
"B. c #DBAF6E",
"V. c #EABA6A",
"C. c #D8C74A",
"Z. c #D9C757",
"A. c #D6CD51",
"S. c #EDCD44",
"D. c #E7C748",
"F. c #F6CA45",
"G. c #E7D54A",
"H. c #F8D746",
"J. c #E3C453",
"K. c #E4CB53",
"L. c #E7CA59",
"P. c #F3C954",
"I. c #EBD454",
"U. c #EEDD53",
"Y. c #E5D35C",
"T. c #EDD55D",
"R. c #EDDC5A",
"E. c #E6D755",
"W. c #F4D958",
"Q. c #FCE44B",
"!. c #F8E947",
"~. c #FBF349",
"^. c #F9E857",
"/. c #FDF454",
"(. c #FFF359",
"). c #EEE350",
"_. c #D8C866",
"`. c #DED263",
"'. c #D6C57B",
"]. c #D4CC77",
"[. c #E5C966",
"{. c #E8D866",
"}. c #F3DB64",
"|. c #E5D377",
" X c #EDE364",
".X c #F6E969",
"XX c #F2EC6C",
"oX c #AA9789",
"OX c #BBA588",
"+X c #ACA599",
"@X c #BAA899",
"#X c #BBB68E",
"$X c #B8ABA6",
"%X c #B9B2B1",
"&X c #93948C",
"*X c #C7AA86",
"=X c #C6A896",
"-X c #C7B69A",
";X c #CDB68D",
":X c #C5ADA9",
">X c #C9B9A7",
",X c #D3B8A8",
"<X c #C8B7B6",
"1X c #DAB9B2",
"2X c #E8B991",
"3X c #DAC688",
"4X c #D4CA98",
"5X c #E7DA89",
"6X c #E7D594",
"7X c #EDD39D",
"8X c #EDE38A",
"9X c #CBC8A5",
"0X c #D9C7A6",
"qX c #C7C7B8",
"wX c #D5C7B9",
"eX c #DAD3BC",
"rX c #EBDAB6",
"tX c #EED2AF",
"yX c #EFE5B8",
"uX c #D6BDC5",
"iX c #BAC3C1",
"pX c #CCC8C6",
"aX c #D6C9C6",
"sX c #D8D6CA",
"dX c #DAD8D7",
"fX c #D2CED1",
"gX c #E7DACA",
"hX c #E4D9D4",
"jX c #EDD4D2",
"kX c #DEE3DC",
"lX c #DDE0CF",
"zX c #E7E5D8",
"xX c #F8F7D9",
"cX c #F5EBCD",
"vX c #DAD7E3",
"bX c #E6DAE2",
"nX c #DCE8E5",
"mX c #E4E4E4",
"MX c #EBE8E7",
"NX c #F7EBE9",
"BX c #EAF2EB",
"VX c #FDF6EB",
"CX c #F4FEED",
"ZX c #FDFDED",
"AX c #FAF6E6",
"SX c #EAE8F6",
"DX c #F8EAF5",
"FX c #EEF6F7",
"GX c #F6F4F5",
"HX c #FCF4F4",
"JX c #F5FDF5",
"KX c #FDFEF4",
"LX c #FDF5FE",
"PX c #F5FEFD",
"IX c #FEFDFE",
"UX c #F6F4FC",
/* pixels */
"IXPXIXLXIX9X-XKXKXIXIXKXIXPXIXIXKXZXIXIXIXKXIXIXZXIXIXKXIXIXIXIXKXIXIXIXIXKXKXIXIXIXIXIXIXIXIXIXIXIXIXKXKXIXIXIXPXKXAXBX",
"IXPXPXLXMX8.oXKXKXIXIXIXIXJXIXIXIXZXIXPXKXKXPXIXZXIXIXKXIXIXIXIXKXIXIXIXIXKXKXIXIXIXIXIXIXIXIXIXIXIXIXIXKXIXPXPXIXKX+XpX",
"LXKXIXCXaX# c.DXIXIXIXIXIXIXKXIXIXIXIXLXIXIXIXIXPXIXIXIXKXJXKXIXIXIXKXZXIXIXIXPXIXIXIXIXIXIXIXIXIXKXIXIXIXIXIXKXIXjX+ -X",
"IXKXIXCXaXh c.SXIXIXIXIXIXIXKXIXIXIXIXIXIXIXLXLXIXBXSXBXJXIXIXLXIXIXKXKXIXIXIXPXIXIXIXIXIXIXIXIXKXKXIXIXPXLXIXKXUX$X# OX",
"PXKXLXIXsX1 s eXKXIXKXIXIXIXIXIXIXIXIXKXKXIXKXxXtX[.D.l.J.|.5X8X5X6XtXcXZXLXIXJXIXIXIXIXIXIXIXIXIXKXIXIXLXLXIXKXaX; l OX",
"LXIXDXhX<Xf 1 qXIXKXIXKXIXIXIXKXIXIXIXKXLXIXzX#XM.[.}.W.{.|.5X].5X'.#X;XwXbXDXIXIXIXIXIXIXIXIXIXIXIXPXIXKXIXIXBXoX; ; ,X",
"PXPXgX3 2 i d b.HXKXIXZXIXKXIXIXPXJXPXIXIX6X1.>.k.d.C.].3X'.`.^.W.H.S.+.~ ~ B.tXKXIXIXIXIXIXIXIXIXIXIXIXKXKXLX9X1 5 @ 9X",
"PXPXsX2 2 y g <.mXKXIXKXIXKXIXPXPXCXPXGXuX0.2.2.2.d.a.>.  -.f.C.H.F.D.S.+.u.<.q.MXUXIXIXIXIXIXIXKXIXIXIXKXKXSX8.1 j o 8.",
"IXKXnX<.g 2 j 1 0XLXLXKXPXLXIXKXLXKXLXjX7 s.V.z.l.p.[.m.1._..X}.{.S.Z.f.k.h.1.aXIXIXIXIXIXIXIXIXIXKXLXKXCXIX=X+ P - h O ",
"IXHXFXv.g q 6 s OXLXvXqXPXIXIXKXKXIXDXuX7 d.V.h.z.z.k.n.N._.E.K.Z.D.J.j.j.h.2.:XGXIXIXIXIXIXIXIXIXKXIXKXKXvX8.1 r = 5 e ",
"IXIXPX<XS j u f t aXM.@XPXIXIXIXLXKXKXdX+XMXBX$X&X+Xq.0.0.6.6.0.g.J.J.d.h.' Y 0.MXIXIXIXIXIXIXIXIXIXIXJXHXM.s e.* d A +X",
"IXPXzXgXY j r k t oX3.@XPXIXLXIXIXIXKXIXsXMXGXdXqX$X8.;.6.6.6.0.m.W.L.k.[.F.] M.dXIXIXIXIXIXIXIXPXIXIXJXpX% s > u k * sX",
"LXkX>.g.<.G S H S - 1 g.MXKXKXIXIXIXIXIXIXKXDXfXqXaXpXqXsXpX>X;X{.W.W.G.l.+.n 9.dXIXIXIXIXIXIXIXKXKX9X=XB.3 r @ G 2 ;.mX",
"HXMX-.9 % 4 F H Y ;.f 2.dXZXLXIXIXKXIXKXLXKXLXSXzXZXKXZXIXKXcX;XZ.H.S.+.l.] n N.BXIXIXIXIXLXIXIXKXhXX . :.D = D h @ % iX",
"KXPX%XA d 0 p 5 w :.P g -XLXKXPXIXIXIXKXIXIXKXPXKXIXIXKXcXyX6XZ. .I.W.G.P.P.j -XKXIXIXIXIXIXIXPXrXa.= r i 2 5 J 9 ; # =X",
"KXPXjX4 k 0 p S 9 - P x q.SXKXPXIXKXIXKXIXIXLXIXIXKXIXsX4X;XN.|.R.I.P.+.l.x.v >XIXIXIXIXKXIXIXmX*Xt e :.w 9 Q 3 & G d wX",
"PXhX3X;.S k 3 H A i u ) x -XIXKXIXIXZXIXKXIXIXPXIXcX5Xd.+.S.K.K.W.I.l.z.[._ m.hXJXIXLXKXKXIX6X! P * r K h J r q k s >XFX",
"IX$X% > 4 G 0 q P i u f c oXdXLXPXIXAXPXJXIXIXPXbX4X'.[.Q.H.I.I.L.D.P.d.Z.U m.NXKXIXLXKXBX%X2.Y & = r.D S S q K k O 1XLX",
"PXsX> g 4 9 F A w r F D b g b.HXIXIXIXIXIXIXIXjXu.+.H.Z.Y.Y.T.U.I.T.J.G.~ q.fXIXLXKXVX7Xp.k G = $ b k A S 9 w w * < q.SX",
"IXJXb.g F & 3 D q & S ! x V y.fXKXLXIXIXIXIXHX<Xi.$.W.J.L.}.T.U.U.L.K.S.d.;XLXIXPXhX:Xq.J / I :.y f / G q e 0 3 r.5 ;XLX",
"IXIXzX9.= l & q F 5 > w M / M g.BXIXIXKXIXIXyXW ] D.S.J._.{.G.K.T.`.`.a.$XFXIXzXV.b x ^ T ! i.,.F R D H u r q b 5 oXNXHX",
"IXbXqXOX# h :.3 F F > 3 M / c y.dXIXIXLXKXUX4X] P.F.G.Z.k.T.W.I.J.A._.a fXIXNX@Xt._ B B ' ! 9 >.p.G q u 9 r K s o wXLXHX",
"IXiX% s * * S H r F Q K R x.M s.eXCXKXLXIXzXf.+.D.D.@.H..X[.Y.{.d.C.;XsXIXJX,Xx o.` / / R p w ) U i i 0 r r.0 < >.dXIXKX",
"LXBXt ; t.e 4 e.H h F y S G N ~ cXCXKXIXIXaXi.+.J.D.H.!.Z.4.A.A.R.A.4XKXPXzXOX| o.` / B ! i.i.( v r.w y u 9 0 5 2.bXIXLX",
"IXIXsX=.1 H q 9 0 ' P $ i b b @XNXKXIXKXNXM.V z.m.D.G.C.D.Z.C.*./.@.3XKXKXaXm ` ` ` W ~ ,.Q ( U p.i ,.,.9 j v * <XCXKXIX",
"IXLXGX3.o q D 0 0 l t.,.r.x g wXIXPXIXKXgXc.o.l.K D.K.}..X.X X!.~.~.3XdXIXaXm o.[ / X.i e p.T U K K y u K k 1 h.NXKXZXLX",
"KXJXpX< s * 0 H j S - i b x =XBXIXHXPXPXaXp d.f.] %.#.!.~.~.~.Q.&.&.X.L.yX1X^ $.o.{ ~ g.t.V / L G S k b w 9.<XxXIXIXIXIX",
"IXIXpX+ d P 9 A k J - K b f =XKXHXIXIXPXaX$ i k.H.#.%.^.@.&.~.^.&.~.%. X4X@X[ #.X.X.~ e t.( E ! L G k b s.tXHXZXLXPXIXIX",
"KXIXLX<Xe 1 H 4 q 3 9 i L x i.NXIXPXPXIXtXY l.F.o.#.Q.T.k.E.~./.~.!.Q.*.@.4.+.| X.K.g.:.] ~ h.b g.OX>XhXJXIXUXKXIXIXKXIX",
"IXLXLXDX;.+ H w A D y w L N r.<XSXFXnXdX=Xv l.` o.H.H.D._. X~.~./.%.Q.!.).k.G.| X.! e h.] Y r.f t 7XAXKXHXIXIXKXPXIXIXLX",
"KXIXIXsXq f h A A ! K ;.J ' ( U ! d.s.v e 2.W ~ C._._.J.Z..X X{.T.Y.U.U.A.5.L.O. .r y 4.d.] E j Y tXIXJXPXIXIXIXJXIXIXIX",
"JXIXIXaX& f L A A 4 w % 0 I b E ' i.~ W y.g.~ S.C.j._.L.Z.E...A.K.E.C.+.a.2.d.} ~ g.Z.i Q W W W S 9.SXJXPXIXHXIXPXIXKXIX",
"mXeXZXIXwX;.2 # 2 & r 9 e e ,.F s.h.x.x.d.h.p.$.O.a.C.Z.6._._._.I.^.*.W.z. .+.f.k.~ _ u.K W Y q.*X-XNXZXKXKXIXIXLXLXIXIX",
"kX8.>XfXwX1.3 h w y.y.r.r.,.r.! Y H P ' Q y.s.o.&.z.Z.Z.'.j.{._.G.^.!.I.u.S.+.i.i l.( K i.W F q.;X@XqXsXdXdXMXKXLXDXIXIX",
"IX<X% % % # L / U t.r.J ! E L R Z V A t 7.1.Q F.T.[.Z.C.`.6. XE.].Y._.4.~ H.z.f.U _ B ~ 0.2.v b { W g f f Y u.h.6.w.zXIX",
"LXDXtX2XB.L t.# 1 q q q w j J F C ` l.i.>.=.i.H.J.k.Y.G. XZ.E.{.j.C._.g.^.+.p.k.~ [ B ~ 2.y.+.X.n ] x b j j y q 8 w.AXIX",
":XcXVXNXrX*X2 4 h s A q r r y ,.J V C Z I H ] H.S.z.L.!.!.K.I.Q.C.6._.*.&.$.[ ] p.l.] Q Y N | Z Z E ! F H ,.t 3.%XBXIXIX",
"$X: @X@XoX<.D ! L k L p.r.r.K ,.0 n M B x.e. . .D.z.L.!.!.U.U.^. X_.j.&.#.F.#.+.p.W E Q E N Z { N Y 5 4 h._.`.tXVXLXPXIX",
"vX% < 5 s d l G k k E ^ ^ ^ T T j K i.l.+.! h.s.+.l.@.%.&.Q.U.%. XG.C.Q.O.O.O.O.W R E R W C C V _ { 4.%XmXIXVXIXLXIXIXIX",
"IX4Xo 1 G k G l d g h g b b k T ] J K 5 [ l.p.d.+.J.H.&.&.Q.^.!.). X{.H.O.O.O.O.S.] ] l.] C Z V ( c j.NXKXIXKXIXLXIXIXPX",
"LXHXuX3.% $ q r u S 1 ! ' L J K e.h.Y r g.L.n.0.S.K.[.W.E.(.*./.R.K.!.&.H.O.#.+.] } C Z { l.p.v E M.vXKXLXIXIXPXKXKXIXIX",
"IXIXLXrXm.i.w r & 4 Y G G A D H H e.! f.r.Q 4.:  .I.L.E.R.~.&./.U.C.Q.&.@.O.$.W ) C ` } c Y Q n I 4XIXZXIXIXIXIXKXKXIXIX",
"PXPXIXLXIXGXMXkXkXaX=Xy g / ^ / M G T / _ ( ! ~ ~ Z.].Z.{.|.XX)._.{.(. X[.{._.] o.C _ _ ! s.! S i d.B.7XKXKXKXIXIXIXIXIX",
"IXIXIXLXIXIXKXKXPXzXOXi v E B / B [ [ ' [ +.J.S.U.j.j.A.Z.a.A.C.5.A.@.C.a.u.u.D.C B V ( v F Q Q u.Q r =.$XBXKXKXIXIXIXIX",
"IXIXKXIXIXKXLXIXUXOX# A g M x M V ) _ _ l.' ] P.[.d.G.^. XZ._.A.).).G.j.g.4.C.n ^ E b E b B ) { V b b h + :XLXKXKXKXIXIX",
"IXIXZXIXIXKXKXKXSX, 3 I B M M B x b ( n b ] l.~ s.L./.G.`.|.].XX(./.)._._.Z.W.$.] +.X.[ _ ` ) N V ( ^ x.f , bXKXKXKXKXKX",
"IXIXIXJXPXIXIXIXdX% g M M M M M / [ ] l.J.z.u.s.X.&.U.[. X!.*.(.(.).G.).T.k.+.o.#.X.` C V b k R W V N x ) 6 -XIXIXIXIXIX",
"IXIXIXJXIXIXIXIXzX>.M M M B M M G E T ! Q p.k.z.#.&.I.j.R./.!.^.^.G.).!.C.m.F.{ W W ` C C T E G v b c N _ z OXUXIXIXIXIX",
"IXIXIXIXIXIXIXIXbXu x I Z W *XdX2Xw c n _ | O.$.K.'.hXhX|.~.~.~..X/. X].wXDX0Xf.+.] n V V ' ] ` V j 2.>.u.c f.mXIXIXIXIX",
"IXIXIXIXIXIXIXIXmXu f / M v gXJX*X~ { ( X.{ | _ K.7XIXNX`.&./.~.G.G.G.5XVXIXxX|.] W b x g h h b M v N.3Xu.6 4.MXIXIXIXIX",
"IXIXIXIXIXIXIXIXkX> g x y <XIXhXp M.,X,X9XeXsXzXHXIXIXIXaX`.XX4XsXNXDXIXPXJXKXIXNXhXaX,X*X7.8 -X9X=.@XVXLX>X+XSXIXIXIXIX",
"IXIXIXIXIXIXIXIXpX<.k f u.HXIX<XQ 7XcXAXxXxXCXKXHXLXJXIXDX|...6XKXIXIXIXIXPXIXIXKXKXVXAXxX8X_.gXAX7X@XZXIXAXmXSXIXIXIXIX",
"IXIXIXIXIXIXIXGX8.o y.1XDXIXKXhXdXIXIXIXKXIXIXIXIXKXKXIXIXKXdXMXIXIXKXIXPXPXIXIXPXPXIXIXJXLXLXPXPXKXKXLXPXLXIXIXIXIXIXIX"
};
