/* XPM */
static char *_2c750190db94742f0d69963d22205f8[] = {
/* columns rows colors chars-per-pixel */
"32 32 18 1 ",
"  c #368B4C",
". c #3D904F",
"X c #50A158",
"o c #55A458",
"O c #5EB064",
"+ c #5EB164",
"@ c #5FB165",
"# c #70B962",
"$ c #72BB63",
"% c #65BF75",
"& c #65C27B",
"* c #64C37D",
"= c #66C47C",
"- c #7BCE7A",
"; c #94D670",
": c #A0DF74",
"> c #A4E276",
", c None",
/* pixels */
"-=**************>>>>>>>>>>>>>>>,",
"=***************>>>>>>>>>>>>>>>>",
"****************>>>>>>>>>>>>>>>>",
"****************>>>>>>>>>>>>>>>>",
"****************>>>>>>>>>>>>>>>>",
"***************&:>>>>>>>>>>>>>>>",
"**************%..;>>>>>>>>>>>>>>",
"**************@  $>>>>>>>>>>>>>>",
"**************O  #>>>>>>>>>>>>>>",
"**************O  #>>>>>>>>>>>>>>",
"**************O  #>>>>>>>>>>>>>>",
"**************O  #>>>>>>>>>>>>>>",
"**************O  #>>>>>>>>>>>>>>",
"**************+  #>>>>>>>>>>>>>>",
"******%@@+++++X  o#####$$;>>>>>>",
"*****&.                  .:>>>>>",
"*****&.                  .:>>>>>",
"******%@+++++@X  o######$;>>>>>>",
"**************O  #>>>>>>>>>>>>>>",
"**************O  #>>>>>>>>>>>>>>",
"**************O  #>>>>>>>>>>>>>>",
"**************O  #>>>>>>>>>>>>>>",
"**************O  #>>>>>>>>>>>>>>",
"**************O  #>>>>>>>>>>>>>>",
"**************@  $>>>>>>>>>>>>>>",
"**************%..;>>>>>>>>>>>>>>",
"***************&:>>>>>>>>>>>>>>>",
"****************>>>>>>>>>>>>>>>>",
"****************>>>>>>>>>>>>>>>>",
"****************>>>>>>>>>>>>>>>>",
"&***************>>>>>>>>>>>>>>>>",
"-=**************>>>>>>>>>>>>>>>,"
};
