/* XPM */
static char *e65aa8d301b94dc2f450842a74475172[] = {
/* columns rows colors chars-per-pixel */
"78 37 145 2 ",
"   c #161616",
".  c #1E1E1E",
"X  c #222223",
"o  c #27272E",
"O  c #2C2C2C",
"+  c #31322F",
"@  c #2C2F35",
"#  c #363636",
"$  c #393A37",
"%  c #3C3C3C",
"&  c #2E5B35",
"*  c #2D6035",
"=  c #32643C",
"-  c #2A7235",
";  c #3A3D4A",
":  c #3D6643",
">  c #444444",
",  c #404F42",
"<  c #41434F",
"1  c #4D434C",
"2  c #4D4D4D",
"3  c #50464F",
"4  c #51494F",
"5  c #47504A",
"6  c #4B514C",
"7  c #4D4C52",
"8  c #554352",
"9  c #594D56",
"0  c #515151",
"q  c #5C5D5E",
"w  c #45634A",
"e  c #516854",
"r  c #5A775E",
"t  c #5D5E62",
"y  c #555968",
"u  c #5F5F6A",
"i  c #615F66",
"p  c #5F6064",
"a  c #636363",
"s  c #606F62",
"d  c #62626E",
"f  c #6D6D6D",
"g  c #657667",
"h  c #71726F",
"j  c #646573",
"k  c #656B75",
"l  c #6B6C74",
"z  c #706F7F",
"x  c #6D727E",
"c  c #737371",
"v  c #72747B",
"b  c #7C7C7B",
"n  c #268634",
"m  c #298B39",
"M  c #1EAE35",
"N  c #1CB536",
"B  c #1CBC36",
"V  c #1FB239",
"C  c #1EBE3B",
"Z  c #22B43A",
"A  c #26BC3C",
"S  c #3D974A",
"D  c #27BC40",
"F  c #2ABD40",
"G  c #4E9758",
"H  c #45B658",
"J  c #5F9868",
"K  c #68836A",
"L  c #30CC48",
"P  c #717581",
"I  c #747A83",
"U  c #7D7E82",
"Y  c #777988",
"T  c #807F8D",
"R  c #7E8087",
"E  c #7C818E",
"W  c #818285",
"Q  c #83848A",
"!  c #8B8B8C",
"~  c #918E8F",
"^  c #91918E",
"/  c #818191",
"(  c #848B95",
")  c #8B8C90",
"_  c #8F8E9A",
"`  c #8F9199",
"'  c #939395",
"]  c #95959B",
"[  c #98979C",
"{  c #97989D",
"}  c #9C9C9C",
"|  c #A09F9F",
" . c #9595A3",
".. c #9C9DA3",
"X. c #9B9CAB",
"o. c #A09FAB",
"O. c #9FA0A3",
"+. c #9FA0AA",
"@. c #A3A3A3",
"#. c #A3A4AA",
"$. c #A8A7AC",
"%. c #A7A8AD",
"&. c #ABABAB",
"*. c #B0AEAE",
"=. c #AFB0AF",
"-. c #B0B1AE",
";. c #A5A6B0",
":. c #ACADB2",
">. c #AEACB8",
",. c #AFB1B5",
"<. c #B4B4B5",
"1. c #B8B7B5",
"2. c #B4B5BA",
"3. c #B7B8BB",
"4. c #BABABC",
"5. c #B6BBC2",
"6. c #BDBEC2",
"7. c #C0BFC0",
"8. c #BFC1C8",
"9. c #C2C2C5",
"0. c #C5C5CA",
"q. c #C8C7CC",
"w. c #C7C8CC",
"e. c #CACACC",
"r. c #CDCED2",
"t. c #D0CFD4",
"y. c #CFD0D4",
"u. c #D2D3D5",
"i. c #D4D5DA",
"p. c #D8D7DC",
"a. c #D7D8DD",
"s. c #DBDBDC",
"d. c #DCDDE2",
"f. c #DFE0E5",
"g. c #E2E3E3",
"h. c #E4E5EA",
"j. c #E7E8EB",
"k. c #EAEAEB",
"l. c #E6E6F1",
"z. c #EBEBF3",
"x. c #EFEEF9",
"c. c #EFF0F5",
"v. c #F4F4F6",
"b. c #F3F3F9",
"n. c None",
/* pixels */
"n.n.n.n.n.n.n.n.n.n.n.n.n.n.n.n.n.n.n.n.n.n.n.n.n.n.n.n.n.n.n.n.n.n.n.n.n.n.n.n.n.n.n.n.n.n.n.n.n.n.n.n.n.n.n.n.n.n.n.n.n.n.n.n.n.n.n.n.n.n.n.n.n.n.n.n.n.n.",
"n.n.n.n.n.n.n.n.n.n.n.n.n.n.n.n.n.n.n.n.n.n.n.n.n.n.n.n.n.n.n.n.n.n.n.n.n.n.n.n.n.n.n.n.n.n.n.n.n.n.n.n.n.n.n.n.n.n.n.n.n.n.n.n.n.n.n.n.n.n.n.n.n.n.n.n.n.n.",
"n.n.n.n.n.n.n.n.n.n.n.n.n.n.n.} | } } } } } } } } } } } } } } } } } } } } } } } } } } } } } } } } } } } } } } } } } } } } } } } } } n.n.n.n.n.n.n.n.n.n.n.n.",
"n.n.n.n.n.n.n.n.n.n.n.n.n.} } } ....} | | } | } } | @.@.| @.| | @.} @.@.| @.} @.@.| | @.@.| | @.} @.| @.| @.} @.@.| | @.} @.| @.| } } [ n.n.n.n.n.n.n.n.n.n.",
"n.n.n.n.n.n.n.n.n.n.n.} } } @.@.@.*.<.3.4.3.3.2.*.@.@.$.$.@.@.&.@.@.&.#.@.#.$.@.#.@.&.@.$.@.&.@.#.$.#.@.&.@.@.&.&.@.&.@.@.#.$.@.@.@.@.| } } n.n.n.n.n.n.n.n.",
"n.n.n.n.n.n.n.n.n.n.} @.@.@.$.6.9.0.q.t.r.y.e.9.9.0.4.*.&.&.&.&.&.&.&.&.&.&.&.&.&.&.&.&.$.&.&.&.&.&.&.&.&.&.&.&.&.&.&.&.*.&.&.-.&.&.$.@.@.| } n.n.n.n.n.n.n.",
"n.n.n.n.n.n.n.n.n.} @.@.@.6.0.4.7.r.i.h.j.h.i.9.=.*.3.0.7.-.4.1.1.1.1.1.1.1.1.1.1.3.4.1.1.1.1.1.1.1.1.1.1.1.1.1.<.<.1.=.-.-.-.-.-.=.-.&.$.@.@.} n.n.n.n.n.n.",
"n.n.n.n.n.n.n.n.} @.@.*.0.6.&.6.e.y.s.d.h.h.i.0.4.,.:.:.7.0.} | @.@.| O.| | @.| | | | | | | | @.} | @.| @.} @.| | $.1.4.9.9.1.<.1.1.-.-.&.$.@.@.| n.n.n.n.n.",
"n.n.n.n.n.n.n.@.&.#.=.0.:.%.3.6.9.y.a.f.g.h.y.8.<.<.3.6.2.6.)   . . . . . . . . . X . . . . . . . . . . . . . . . X O % a ' 7.e.1.1.4.1.-.-.-.@.@.@.n.n.n.n.",
"n.n.n.n.n.n.} @.&.1.0.:.*.2.<.3.8.e.u.f.j.f.y.4.<.2.4.8.e.6.9.Q X O O O O O O O O O O O O O O O O O O O O O O O O O X .   . $ W e.9.7.7.1.4.-.*.@.@.} n.n.n.",
"n.n.n.n.n.n.| &.-.9.2.4.8.<.<.<.6.0.y.f.h.f.r.2.<.3.6.0.e.r.6.7.f O $ $ # # $ $ # # # # $ $ # # $ # # $ $ $ # # # # # $ + + X   2 4.e.4.4.4.4.1.*.@.@.n.n.n.",
"n.n.n.n.n.| #.&.4.2.e.i.9.8.2.2.3.8.y.a.f.f.e.2.2.6.8.0.r.e.r.6.>.5 % > > % > > ; > % > % > % > ; > % > % > > % % > % % % $ # +   + 1.9.1.7.4.4.<.*.@.} n.n.",
"n.n.n.n.n.@.&.1.2.7.h.f.a.e.8.<.2.6.e.a.g.d.9.2.6.9.e.r.r.r.r.r.6.Y > 6 > 1 > > > > > 2 > > 2 > > > > 2 > > > 2 > 1 > > > > % $ $ X + 7.9.1.7.7.4.<.&.| n.n.",
"n.n.n.n.} #.<.,.;.d.c.z.k.f.y.8.3.3.8.u.f.a.6.6.8.0.r.r.y.r.y.t.9...2 6 6 2 2 2 2 2 2 2 2 2 2 2 2 2 2 2 2 2 2 2 2 2 2 2 2 > > > % % . a s.9.e.9.7.1.-.@.n.n.",
"n.n.n.n.O.=.1.O.2.z.c.b.b.c.j.i.0.3.6.r.d.i.4.9.w.r.y.y.y.i.y.y.e.,.p > 2 2 2 2 2 2 2 2 2 2 2 2 2 2 2 2 2 2 2 2 6 6 2 3 6 2 2 1 > 2 6 O -.s.e.e.9.7.1.%.@.n.",
"n.n.n.n.@.<.=.` 8.j.k.b.b.b.b.z.d.e.6.e.a.y.8.e.r.y.i.y.i.i.i.y.e.>.k > 7 2 2 2 2 2 2 2 2 2 2 2 2 2 2 2 2 2 2 3 4 8 : = 1 2 2 2 2 2 2 O h g.u.r.e.9.4.-.@.n.",
"n.n.n.n.&.4.@.( 3.r.a.f.l.z.z.c.c.h.y.0.y.r.y.r.i.i.i.i.i.r.e.6.3.,.I % 2 2 2 2 2 2 2 2 2 2 2 2 2 2 2 2 2 2 5 * * & m B n , 3 2 0 2 2 $ 2 s.u.u.u.e.7.1.&.n.",
"n.n.n.n.*.7.} ( ,.6.6.9.0.r.y.i.d.h.f.i.t.t.y.r.r.w.0.6.6.3.2.2.2.,.Y $ 2 2 2 2 2 2 2 2 2 2 2 0 2 2 2 2 2 4 w B N B Z Z A M - 5 6 2 2 > > s.g.u.u.e.e.7.*.n.",
"n.n.n.n.1.9.^ E ,.2.,.,.,.:.,.<.<.3.6.6.6.9.0.9.6.6.3.2.2.3.2.>.2.2.I # 2 2 2 2 2 2 2 2 2 2 2 2 2 2 2 2 2 4 w N N Z Z Z Z B L G 4 2 0 > 0 s.g.g.s.u.e.7.1.n.",
"n.n.n.n.4.9.~ I :.:.%.#.#.#.#.+.#.#.,.6.6.5.r.d.d.a.i.i.y.y.r.r.9.6.f + 2 2 2 2 2 2 2 2 2 2 2 2 2 2 2 2 2 2 w A A A A Z B H K 0 2 2 2 > f k.g.g.s.s.u.e.7.n.",
"n.n.n.n.9.e.^ v %.%.O.{ [ ] ] { ..$.2.r.9.;.6.r.d.l.l.z.l.l.f.a.i.0.y O 2 2 2 2 2 0 2 2 2 2 2 2 2 2 2 2 2 2 0 r r s S F J a 1 2 0 2 0 % } k.g.g.g.s.s.e.7.n.",
"n.n.n.n.e.e.| k #.%...{ ' ] ] ..#.2.9.r.2.#.,.6.w.d.l.x.x.x.l.l.f.6.< # 2 2 2 2 2 2 2 2 2 2 2 2 2 2 2 2 2 2 2 1 1 1 e g 9 1 2 6 2 2 2 0 u.k.g.s.g.g.s.u.u.n.",
"n.n.n.n.n.u.-.k  .&.} [ ] [ ..$.2.6.r.r...] $.,.6.r.a.l.x.x.x.l.h.+.@ $ 2 2 2 2 2 2 2 2 2 2 2 2 2 2 2 2 2 2 2 0 6 6 4 2 6 2 2 2 2 0 % } k.g.g.g.g.g.g.s.s.n.",
"n.n.n.n.n.s.4.v Y *.+.....+.$.,.6.r.i.9.` ) ..:.2.6.q.i.l.l.z.l.d.P X > 2 2 2 2 2 2 2 2 2 2 2 2 2 2 2 2 2 2 2 2 2 2 2 2 2 2 2 2 2 > b g.g.g.g.g.g.g.g.s.n.n.",
"n.n.n.n.n.g.9.^ l #.%.#.#.%.2.6.0.y.a.2.! Q ) ..:.2.8.e.a.d.d.d.5.; O > 2 2 2 2 4 6 4 2 2 2 2 2 2 2 2 2 2 2 2 2 2 2 2 2 2 2 0 2 > b k.g.g.g.g.g.g.g.g.j.n.n.",
"n.n.n.n.n.n.r.&.f Q 2.%.:.2.6.0.r.a.y.:.W U ) ` #.2.2.9.q.r.t.y.Y X % 2 2 0 0 2 4 0 2 6 2 0 2 0 0 2 0 0 0 2 0 0 2 7 2 2 2 2 > 0 @.j.g.g.g.g.g.g.g.g.g.n.n.n.",
"n.n.n.n.n.n.s.4.^ i X.,.,.3.8.y.i.d.0.X.R U R ) { %.2.3.7.9.0.X.o O % % > > > > > > > > > > > > > > > > > > > > > > > > 2 q ^ u.k.g.g.g.g.g.g.g.g.g.k.n.n.n.",
"n.n.n.n.n.n.n.r.$.b d ;.2.6.0.y.a.a.6...U U W ) ] ..:.2.,.3.:.7 $ 0 p f h f f h f h h h h h h f h h f f f h f f h f U [ 4.s.c.g.s.g.g.g.g.s.g.s.g.g.n.n.n.n.",
"n.n.n.n.n.n.n.n.7.} h j ;.9.y.i.a.y.3.{ R R W ! ' ..#.%.3.o.d h @.7.s.g.j.g.g.j.g.g.k.g.k.g.g.g.g.g.g.k.g.k.g.g.g.k.k.k.k.g.s.g.s.g.g.g.g.g.g.g.g.n.n.n.n.n.",
"n.n.n.n.n.n.n.n.n.1.} h u  .0.s.d.r.,.{ W W Q ! ` ] #.%.] l h } 1.e.s.g.g.g.g.g.g.g.g.s.g.g.g.g.g.g.g.g.g.g.g.g.g.g.g.g.s.g.g.g.g.g.g.g.g.g.g.g.n.n.n.n.n.n.",
"n.n.n.n.n.n.n.n.n.n.1.} b t z X.0.w.<...) ! ) ' } #. .z t W @.<.e.s.g.g.g.g.g.g.g.g.s.g.g.g.g.g.g.g.g.g.g.g.g.g.g.g.s.g.g.g.g.g.g.g.g.g.g.g.g.n.n.n.n.n.n.n.",
"n.n.n.n.n.n.n.n.n.n.n.<.@.) f q j / ]  .....] _ T l t h ) @.4.e.u.g.g.g.s.g.g.g.g.g.g.g.g.g.g.g.g.g.g.g.g.g.g.g.g.g.g.g.g.g.g.g.g.g.g.g.g.n.n.n.n.n.n.n.n.n.",
"n.n.n.n.n.n.n.n.n.n.n.n.n.-.| ) c a q i t i a q a c ! } *.4.e.s.g.g.s.g.g.s.g.g.g.g.g.g.g.g.g.g.g.g.g.g.g.g.g.g.g.g.g.g.g.g.g.g.g.g.g.g.n.n.n.n.n.n.n.n.n.n.",
"n.n.n.n.n.n.n.n.n.n.n.n.n.n.n.-.&.} ' ) ! ! ~ ' | @.*.7.e.u.s.k.g.g.k.k.k.g.k.g.j.g.g.g.g.g.j.g.g.g.g.g.g.j.g.g.g.g.g.k.g.g.g.g.g.n.n.n.n.n.n.n.n.n.n.n.n.n.",
"n.n.n.n.n.n.n.n.n.n.n.n.n.n.n.n.n.n.n.<.<.<.1.7.7.e.u.g.k.k.v.v.v.v.v.n.n.n.n.n.n.n.n.n.n.n.n.n.n.n.n.n.n.n.n.n.n.n.n.n.n.n.n.n.n.n.n.n.n.n.n.n.n.n.n.n.n.n.",
"n.n.n.n.n.n.n.n.n.n.n.n.n.n.n.n.n.n.n.n.n.n.n.n.n.n.n.n.n.n.n.n.n.n.n.n.n.n.n.n.n.n.n.n.n.n.n.n.n.n.n.n.n.n.n.n.n.n.n.n.n.n.n.n.n.n.n.n.n.n.n.n.n.n.n.n.n.n.",
"n.n.n.n.n.n.n.n.n.n.n.n.n.n.n.n.n.n.n.n.n.n.n.n.n.n.n.n.n.n.n.n.n.n.n.n.n.n.n.n.n.n.n.n.n.n.n.n.n.n.n.n.n.n.n.n.n.n.n.n.n.n.n.n.n.n.n.n.n.n.n.n.n.n.n.n.n.n."
};
