/* XPM */
static char *_480974493053[] = {
/* columns rows colors chars-per-pixel */
"78 37 159 2 ",
"   c #0A0B0A",
".  c #171717",
"X  c #1B1B1B",
"o  c #232323",
"O  c #282827",
"+  c #262828",
"@  c #2C2C2B",
"#  c #2E2F35",
"$  c #2E3138",
"%  c #323232",
"&  c #35393F",
"*  c #3A3A3A",
"=  c #5C362F",
"-  c #7D2721",
";  c #623D39",
":  c #773C38",
">  c #7A3F3A",
",  c #753A33",
"<  c #40403F",
"1  c #3B4849",
"2  c #444444",
"3  c #484847",
"4  c #42464B",
"5  c #454C4D",
"6  c #4D4D4D",
"7  c #5A4140",
"8  c #514F4E",
"9  c #414251",
"0  c #464E50",
"q  c #4B4E52",
"w  c #465050",
"e  c #495252",
"r  c #515151",
"t  c #5A5757",
"y  c #565759",
"u  c #545C5C",
"i  c #5D5D5D",
"p  c #744848",
"a  c #6E5550",
"s  c #515561",
"d  c #5E5E62",
"f  c #636364",
"g  c #696967",
"h  c #676868",
"j  c #6B6B6A",
"k  c #63626C",
"l  c #706E6E",
"z  c #666672",
"x  c #686A73",
"c  c #6C6D7A",
"v  c #676C7B",
"b  c #716F7D",
"n  c #6C727F",
"m  c #747473",
"M  c #777875",
"N  c #797977",
"B  c #72737B",
"V  c #7E7E7E",
"C  c #86241D",
"Z  c #AD261C",
"A  c #B32519",
"S  c #BC291D",
"D  c #802823",
"F  c #99302B",
"G  c #8A3F3C",
"H  c #AD2A21",
"J  c #A32A21",
"K  c #B42D22",
"L  c #AA3125",
"P  c #B23124",
"I  c #B03C36",
"U  c #BB3C33",
"Y  c #C03A32",
"T  c #98413C",
"R  c #A7423A",
"E  c #B94036",
"W  c #B2403B",
"Q  c #98524C",
"!  c #855A56",
"~  c #AC4440",
"^  c #B44E41",
"/  c #747383",
"(  c #777881",
")  c #7C7D81",
"_  c #777988",
"`  c #787B8C",
"'  c #7F8084",
"]  c #7D838B",
"[  c #808183",
"{  c #84858A",
"}  c #87888C",
"|  c #8C8C8D",
" . c #858590",
".. c #878D96",
"X. c #8C8D92",
"o. c #8D8E98",
"O. c #918F9B",
"+. c #8F9095",
"@. c #919191",
"#. c #989897",
"$. c #95959B",
"%. c #99979E",
"&. c #97999C",
"*. c #9C9C9C",
"=. c #A09F9D",
"-. c #A0A09F",
";. c #9293A1",
":. c #979BA4",
">. c #9D9DA3",
",. c #9B9CA9",
"<. c #A19FA6",
"1. c #9CA1A7",
"2. c #9DA2AA",
"3. c #A3A3A3",
"4. c #A8A8A7",
"5. c #A5A6AA",
"6. c #A7A8AD",
"7. c #AAAAAB",
"8. c #B3B1AF",
"9. c #A1A2B0",
"0. c #ACADB2",
"q. c #A6A9B3",
"w. c #B1AFB4",
"e. c #AFB0B5",
"r. c #AFB0B9",
"t. c #B3B3B4",
"y. c #B8B8B6",
"u. c #B4B4BA",
"i. c #B8B7B9",
"p. c #B7B8BD",
"a. c #BBBBBD",
"s. c #BCBDC2",
"d. c #C0BFC3",
"f. c #BFC0C4",
"g. c #C2C2C4",
"h. c #C4C5CA",
"j. c #C8C7C8",
"k. c #C7C8CD",
"l. c #CACACC",
"z. c #CCCDD2",
"x. c #D0CFD5",
"c. c #CFD0D4",
"v. c #D2D3D5",
"b. c #D4D5DA",
"n. c #D7D8DD",
"m. c #DBDBDD",
"M. c #DCDCE2",
"N. c #DFE0E5",
"B. c #E2E2E2",
"V. c #E4E4EB",
"C. c #E7E8ED",
"Z. c #EBEBEB",
"A. c #E5E5F0",
"S. c #EBEBF3",
"D. c #EEEEF9",
"F. c #EFF0F5",
"G. c #F1F1F6",
"H. c #F3F4F9",
"J. c None",
/* pixels */
"J.J.J.J.J.J.J.J.J.J.J.J.J.J.J.J.J.J.J.J.J.J.J.J.J.J.J.J.J.J.J.J.J.J.J.J.J.J.J.J.J.J.J.J.J.J.J.J.J.J.J.J.J.J.J.J.J.J.J.J.J.J.J.J.J.J.J.J.J.J.J.J.J.J.J.J.J.J.",
"J.J.J.J.J.J.J.J.J.J.J.J.J.J.J.J.J.J.J.J.J.J.J.J.J.J.J.J.J.J.J.J.J.J.J.J.J.J.J.J.J.J.J.J.J.J.J.J.J.J.J.J.J.J.J.J.J.J.J.J.J.J.J.J.J.J.J.J.J.J.J.J.J.J.J.J.J.J.",
"J.J.J.J.J.J.J.J.J.J.J.J.J.J.J.Z.Z.Z.Z.Z.Z.C.B.Z.C.C.Z.Z.Z.Z.Z.Z.Z.Z.C.B.C.Z.Z.Z.B.Z.Z.Z.Z.Z.Z.Z.Z.B.b.l.d.t.8.3.=.*.#.&.*.3.7.y.J.J.J.J.J.J.J.J.J.J.J.J.J.J.",
"J.J.J.J.J.J.J.J.J.J.J.J.B.B.B.B.B.m.B.B.B.B.B.B.m.B.B.B.B.B.B.B.B.B.B.B.B.B.B.B.B.B.B.B.B.B.B.m.v.l.y.4.*.} N g f d a k f g V @.<.7.J.J.J.J.J.J.J.J.J.J.J.J.",
"J.J.J.J.J.J.J.J.J.J.J.B.B.B.B.B.B.B.B.B.B.B.B.B.B.B.B.B.Z.B.B.B.B.B.B.B.B.B.B.B.B.B.B.B.B.B.B.v.j.8.3.| j d z ( { X.O.o.{ / k d j | 3.t.J.J.J.J.J.J.J.J.J.J.",
"J.J.J.J.J.J.J.J.J.B.B.B.B.B.B.B.B.B.B.B.B.B.B.B.B.B.B.B.B.B.B.B.B.B.B.B.B.B.B.B.B.B.B.B.B.B.b.g.t.-.N d / ;.<.>.$.$.@.&.7.s.s.,.c d m $.7.J.J.J.J.J.J.J.J.J.",
"J.J.J.J.J.J.J.J.B.B.B.B.B.B.B.C.B.B.B.B.B.m.B.B.B.B.B.B.B.B.B.B.B.B.B.B.B.B.B.m.B.B.B.B.B.v.j.7.@.m n %.6.<.#.| } { ' X.5.s.b.n.z.,.z f @.t.j.J.J.J.J.J.J.J.",
"J.J.J.J.J.J.Z.B.B.B.B.B.B.B.B.B.B.B.B.Z.Z.Z.Z.Z.Z.Z.Z.Z.Z.Z.Z.Z.Z.Z.Z.Z.Z.Z.Z.Z.Z.Z.Z.Z.Z.m.a.*.g c 7.t.5.>.$.X.{ ) ) X.5.h.n.n.b.l.r./ f #.y.c.J.J.J.J.J.J.",
"J.J.J.J.J.Z.B.B.B.Z.B.B.B.B.B.B.B.F.B.j.8.#.| @.| @.@.@.@.@.@.@.#.@.@.@.+.@.@.@.@.@.@.@.] V h 4 v u.t.r.e.3.&.X.{ ) V } q.z.n.n.z.h.s.u./ h *.g.B.J.J.J.J.J.",
"J.J.J.J.J.Z.B.B.B.B.B.B.B.B.B.Z.v.#.g 6 2 2 1 2 2 2 < 2 < < 1 2 < 3 < < 2 2 < 2 2 < 2 < = % X 1 u.s.s.s.u.e.:.+.} [ ) X.t.b.M.c.k.s.u.r.q.z N 7.v.J.J.J.J.J.",
"J.J.J.J.Z.B.B.B.B.B.B.B.B.Z.B.#.r 2 3 6 6 8 8 8 8 8 8 8 8 8 8 8 6 8 8 8 8 8 8 6 6 8 8 6 2 % # 9.z.x.k.g.p.u.q.%.X.' V +.s.b.b.z.d.p.t.0.t.,.f $.g.m.J.J.J.J.",
"J.J.J.J.B.B.B.B.B.B.B.B.Z.b.l < 6 8 6 6 6 6 6 6 6 6 6 6 6 6 6 6 6 8 8 8 6 6 6 6 6 6 6 3 1 o v c.M.M.b.z.h.p.u.5.o.{ ' *.k.n.z.h.s.0.6.5.5.w.` m y.v.J.J.J.J.",
"J.J.J.Z.B.B.B.B.B.B.B.Z.v.i < r 6 6 6 6 6 6 6 6 6 6 6 6 6 6 6 6 6 6 6 6 6 6 6 6 6 6 6 3 % % q.V.A.A.M.M.z.f.s.q.3.X.} 5.x.x.h.s.w.5.<.<.1.7.,.z -.v.m.J.J.J.",
"J.J.J.m.B.B.B.B.B.B.B.B.l < r 8 6 6 6 6 6 8 6 6 6 6 6 6 6 6 6 6 6 6 6 6 6 6 6 6 6 6 6 3 @ s z.A.A.D.D.S.M.x.s.s.0.1.+.u.M.k.s.r.5.>.%.%.#.2.4.n | j.b.J.J.J.",
"J.J.J.c.m.B.B.B.B.m.Z.4.< 8 8 6 6 6 6 6 5 6 8 8 8 6 6 6 6 6 6 6 6 6 6 6 6 6 6 6 6 6 6 2 + _ n.N.S.D.D.D.S.M.z.g.u.5.3.f.z.s.0.2.:.$.$.$.*.<.0.] V j.z.J.J.J.",
"J.J.J.j.v.m.B.B.B.B.B.f 3 8 6 6 6 6 w 1 , T 1 4 1 5 6 6 6 6 6 6 6 6 6 6 6 6 6 6 6 6 6 1 # ;.n.M.M.A.A.S.S.S.N.v.g.q.q.z.h.e.5.:.$.$.$.$.:.3.0...m y.l.J.J.J.",
"J.J.J.g.z.v.B.B.B.Z.a.< 8 8 6 6 w 5 = F Y J - C C ; 6 6 6 6 6 6 6 6 6 6 6 6 6 6 6 6 0 1 & ,.k.z.b.x.M.M.M.N.N.M.x.f.r.h.p.6.2.1.>.>.1.<.3.6.e.O.B t.g.a.J.J.",
"J.J.J.a.j.v.v.B.B.Z.-.< 8 8 6 6 < C P E L Z P P S > w 6 6 6 6 6 6 6 6 6 6 6 6 6 6 5 6 = 4 ,.p.p.s.s.s.s.s.s.f.h.k.h.f.s.p.u.e.0.0.e.0.0.0.0.t.:.( 8.a.8.J.J.",
"J.J.7.t.j.l.v.m.m.Z.@.% 6 6 6 6 a E E H H P Z Z A : w 8 6 6 6 6 6 6 6 6 6 6 6 6 6 6 q 2 q 2.t.r.r.u.q.p.s.f.h.k.z.z.z.c.n.m.n.l.k.f.f.s.s.p.p.,.] t.a.4.J.J.",
"J.J.J.8.a.j.l.v.v.Z.-.@ 3 8 6 6 8 i ! E A L R R W p 5 6 6 6 6 6 6 6 6 6 6 6 6 6 6 6 6 3 q 1.u.p.s.h.z.x.b.b.b.b.c.z.b.k.c.N.F.F.Z.C.V.N.n.z.g.2.| y.t.4.J.J.",
"J.J.J.4.y.g.j.v.v.B.y.@ 3 6 6 6 8 3 w i Q T u u u r 6 6 6 6 6 6 6 6 6 6 6 6 6 6 6 6 6 6 4 :.a.l.c.b.b.b.x.x.z.z.k.h.n.c.f.h.m.C.H.H.H.F.S.V.n.1.&.y.7.3.J.J.",
"J.J.J.4.8.a.g.j.l.l.m.< < r 8 6 6 6 6 3 e t 3 6 3 6 6 6 6 6 6 6 6 6 6 6 6 6 6 6 6 6 6 6 4 ..g.v.c.v.v.b.x.x.z.k.f.h.M.v.h.a.f.b.V.F.H.H.F.S.M.,.7.y.4.J.J.J.",
"J.J.J.4.7.y.y.j.j.j.m.-.o < 3 6 6 8 6 6 6 6 6 6 6 6 6 6 6 6 6 6 6 6 6 6 6 6 5 6 6 6 6 8 2 V p.c.z.v.v.v.c.z.h.f.p.k.N.n.l.s.p.f.c.M.Z.S.F.G.k.5.y.8.1.J.J.J.",
"J.J.J.-.-.8.y.a.g.g.a.v.i . * * 3 3 3 6 6 6 6 6 8 6 6 6 8 6 8 8 6 6 6 6 8 6 6 6 6 6 6 6 3 u e.f.x.c.z.z.z.h.f.p.p.c.V.M.c.f.p.r.a.k.n.N.C.B.r.p.e.4.*.J.J.J.",
"J.J.J.J.-.7.t.y.a.a.y.a.j.8 . % % * * 2 < 2 2 2 2 2 2 2 < 3 < 3 4 3 3 3 4 2 2 2 < 3 2 2 2 * +.f.z.z.z.l.k.d.s.u.a.v.V.N.v.k.a.u.u.s.k.v.m.s.p.t.7.3.J.J.J.J.",
"J.J.J.J.*.3.7.y.a.a.a.a.g.j.i . o % % % * * * * * * * * * * * * * * * % * * * * * * * * * * 3 u.p.l.k.k.g.s.u.t.f.n.V.N.n.l.f.p.t.u.p.k.a.s.a.7.4.>.J.J.J.J.",
"J.J.J.J.J.1.3.7.t.y.y.a.a.g.z.@.* . X + @ % % % % % % % % % % % % % % % % % % % % % % % % % O i g.s.l.k.s.p.t.u.g.n.C.N.n.c.h.a.t.t.i.7.u.h.t.5.-.J.J.J.J.J.",
"J.J.J.J.J.=.3.3.4.8.t.y.y.a.y.l.a.| y @ X . . . . . . . . . . . . . . . . . . . . . . X . . .   u s.p.g.s.u.t.i.k.m.V.V.m.c.l.f.p.u.5.t.g.4.4.4.*.J.J.J.J.J.",
"J.J.J.J.J.J.=.3.4.7.7.t.t.t.y.t.i.g.g.y.*.| [ V V V [ V V V V V V V V V V V V V V V V V ] ] ! [ m t.h.0.0.u.y.s.l.M.V.B.M.b.c.h.i.6.s.k.4.3.3.-.J.J.J.J.J.J.",
"J.J.J.J.J.J.J.=.-.3.7.7.7.8.t.t.t.8.t.t.a.a.a.a.a.a.a.a.a.g.d.a.a.g.a.a.a.a.a.a.f.a.a.a.g.f.f.d.d.t.s.k.s.7.7.p.c.N.C.V.N.b.h.p.p.l.p.3.3.3.*.J.J.J.J.J.J.J.",
"J.J.J.J.J.J.J.J.*.-.3.3.4.7.7.7.7.7.8.7.7.7.7.7.7.7.7.7.7.7.7.7.8.7.7.7.7.7.8.7.7.7.7.7.7.7.7.7.7.7.7.8.s.h.d.a.h.c.b.b.c.h.h.h.a.7.3.3.3.#.J.J.J.J.J.J.J.J.",
"J.J.J.J.J.J.J.J.J.#.*.-.3.3.3.4.7.4.4.4.4.7.4.7.4.4.7.4.7.4.7.4.4.4.4.4.7.4.4.4.4.4.7.4.4.7.4.4.4.4.4.4.4.3.t.s.s.f.g.g.f.a.t.4.3.3.-.*.*.J.J.J.J.J.J.J.J.J.",
"J.J.J.J.J.J.J.J.J.J.J.#.*.*.*.3.3.3.3.3.3.3.3.3.3.3.3.3.3.3.3.3.3.3.3.3.3.3.3.3.3.3.3.3.3.3.3.3.3.3.3.3.3.3.3.-.3.-.3.3.-.-.=.3.3.*.#.J.J.J.J.J.J.J.J.J.J.J.",
"J.J.J.J.J.J.J.J.J.J.J.J.J.*.*.*.*.*.*.*.*.*.*.*.*.*.*.*.*.*.*.*.*.*.*.*.*.*.*.*.*.*.*.*.*.*.*.*.*.*.*.*.*.*.#.*.*.*.*.*.*.*.*.#.#.J.J.J.J.J.J.J.J.J.J.J.J.J.",
"J.J.J.J.J.J.J.J.J.J.J.J.J.J.J.J.J.J.J.J.J.J.J.J.J.J.J.J.J.J.J.J.J.J.J.J.J.J.J.J.J.J.J.J.J.J.J.J.J.J.J.J.J.J.J.J.J.J.J.J.J.J.J.J.J.J.J.J.J.J.J.J.J.J.J.J.J.J.",
"J.J.J.J.J.J.J.J.J.J.J.J.J.J.J.J.J.J.J.J.J.J.J.J.J.J.J.J.J.J.J.J.J.J.J.J.J.J.J.J.J.J.J.J.J.J.J.J.J.J.J.J.J.J.J.J.J.J.J.J.J.J.J.J.J.J.J.J.J.J.J.J.J.J.J.J.J.J.",
"J.J.J.J.J.J.J.J.J.J.J.J.J.J.J.J.J.J.J.J.J.J.J.J.J.J.J.J.J.J.J.J.J.J.J.J.J.J.J.J.J.J.J.J.J.J.J.J.J.J.J.J.J.J.J.J.J.J.J.J.J.J.J.J.J.J.J.J.J.J.J.J.J.J.J.J.J.J."
};
